<svg id="Calque_6" data-name="Calque 6" xmlns="http://www.w3.org/2000/svg" viewBox="0 0 124.35 504.54"><defs><style>.cls-1,.cls-2,.cls-4,.cls-5,.cls-6{fill:none;stroke-miterlimit:10;}.cls-1,.cls-2,.cls-4{stroke:#e63b5b;}.cls-1{stroke-width:1.85px;}.cls-2{stroke-width:1.71px;}.cls-3{fill:#e63b5b;}.cls-4{stroke-width:2px;}.cls-5,.cls-6{stroke:#fff;}.cls-5{stroke-width:1.15px;}.cls-6{stroke-width:1.36px;}</style></defs><title>borderrightproject</title><path class="cls-1" d="M594,0c-68.33,56.68-83.67,103.48-83.55,137.28.17,45.79,28.71,60.91,26.67,111.67-2.52,62.76-47.78,80.43-47.75,127.26C489.4,405.48,507.12,448,594,500Z" transform="translate(-470.65 2.59)"/><path class="cls-2" d="M594,0c-58.28,56.68-71.36,103.48-71.26,137.28.14,45.79,24.48,60.91,22.75,111.67-2.15,62.76-40.75,80.43-40.73,127.26C504.78,405.48,519.9,448,594,500Z" transform="translate(-470.65 2.59)"/><path class="cls-1" d="M594,0c-68.33,56.68-83.67,103.48-83.55,137.28.17,45.79,28.71,60.91,26.67,111.67-2.52,62.76-47.78,80.43-47.75,127.26C489.4,405.48,507.12,448,594,500Z" transform="translate(-470.65 2.59)"/><path class="cls-3" d="M594,0c-48.85,56.68-59.82,103.48-59.73,137.28.12,45.79,20.52,60.91,19.07,111.67-1.8,62.76-34.16,80.43-34.14,127.26,0,29.27,12.69,71.77,74.8,123.79Z" transform="translate(-470.65 2.59)"/><path class="cls-4" d="M594,0c-79.9,56.68-97.84,103.48-97.7,137.28.19,45.79,33.57,60.91,31.19,111.67-3,62.76-55.88,80.43-55.84,127.26C471.68,405.48,492.41,448,594,500Z" transform="translate(-470.65 2.59)"/><path class="cls-5" d="M594,0c-26.56,56.68-32.52,103.48-32.47,137.28.06,45.79,11.15,60.91,10.36,111.67-1,62.76-18.57,80.43-18.55,127.26,0,29.27,6.89,71.77,40.66,123.79Z" transform="translate(-470.65 2.59)"/><path class="cls-6" d="M594,0c-37.15,56.68-45.49,103.48-45.42,137.28.09,45.79,15.6,60.91,14.5,111.67-1.37,62.76-26,80.43-26,127.26,0,29.27,9.65,71.77,56.88,123.79Z" transform="translate(-470.65 2.59)"/></svg>