<svg id="Calque_6" data-name="Calque 6" xmlns="http://www.w3.org/2000/svg" viewBox="0 0 124.35 504.54"><defs><style>.cls-1,.cls-2,.cls-4,.cls-5,.cls-6{fill:none;stroke-miterlimit:10;}.cls-1,.cls-2,.cls-4{stroke:#e63b5b;}.cls-1{stroke-width:1.85px;}.cls-2{stroke-width:1.71px;}.cls-3{fill:#e63b5b;}.cls-4{stroke-width:2px;}.cls-5,.cls-6{stroke:#fff;}.cls-5{stroke-width:1.15px;}.cls-6{stroke-width:1.36px;}</style></defs><title>borderleftproject</title><path class="cls-1" d="M0,500c68.33-56.68,83.67-103.48,83.55-137.28-.17-45.79-28.71-60.91-26.67-111.67,2.52-62.76,47.78-80.43,47.75-127.26C104.6,94.52,86.88,52,0,0Z" transform="translate(1 1.95)"/><path class="cls-2" d="M0,500c58.28-56.68,71.36-103.48,71.26-137.28-.14-45.79-24.48-60.91-22.75-111.67,2.15-62.76,40.75-80.43,40.73-127.26C89.22,94.52,74.1,52,0,0Z" transform="translate(1 1.95)"/><path class="cls-1" d="M0,500c68.33-56.68,83.67-103.48,83.55-137.28-.17-45.79-28.71-60.91-26.67-111.67,2.52-62.76,47.78-80.43,47.75-127.26C104.6,94.52,86.88,52,0,0Z" transform="translate(1 1.95)"/><path class="cls-3" d="M0,500c48.85-56.68,59.82-103.48,59.73-137.28-.12-45.79-20.52-60.91-19.07-111.67,1.8-62.76,34.16-80.43,34.14-127.26C74.78,94.52,62.11,52,0,0Z" transform="translate(1 1.95)"/><path class="cls-4" d="M0,500c79.9-56.68,97.84-103.48,97.7-137.28-.19-45.79-33.57-60.91-31.19-111.67,2.95-62.76,55.88-80.43,55.84-127.26C122.32,94.52,101.59,52,0,0Z" transform="translate(1 1.95)"/><path class="cls-5" d="M0,500c26.56-56.68,32.52-103.48,32.47-137.28-.06-45.79-11.15-60.91-10.36-111.67,1-62.76,18.57-80.43,18.55-127.26C40.66,94.52,33.77,52,0,0Z" transform="translate(1 1.95)"/><path class="cls-6" d="M0,500c37.15-56.68,45.49-103.48,45.42-137.28-.09-45.79-15.6-60.91-14.5-111.67,1.37-62.76,26-80.43,26-127.26C56.87,94.52,47.23,52,0,0Z" transform="translate(1 1.95)"/></svg>