<svg id="Calque_3" data-name="Calque 3" xmlns="http://www.w3.org/2000/svg" viewBox="0 0 96.48 254.72"><defs><style>.cls-1{fill:#e63b5b;}.cls-2,.cls-4,.cls-5{fill:none;stroke:#e63b5b;stroke-miterlimit:10;}.cls-3{fill:#fff;}.cls-4{stroke-width:0.59px;}.cls-5{stroke-width:2px;}</style></defs><title>borderright</title><circle class="cls-1" cx="55.45" cy="23.38" r="18.85"/><circle class="cls-2" cx="55.45" cy="23.38" r="20.87"/><path class="cls-1" d="M534.93,70.65a11.77,11.77,0,0,0-4-5.8,11.54,11.54,0,0,0-4.87-2.19,1.51,1.51,0,0,1,.07-1.27,1.74,1.74,0,0,1,1.82-.5,11.7,11.7,0,0,1,3.65,2.52A12.19,12.19,0,0,1,534.93,70.65Z" transform="translate(-459.83 -60.82)"/><circle class="cls-3" cx="55.45" cy="23.38" r="4.29"/><rect class="cls-2" x="465.03" y="145.02" width="36.86" height="36.86" rx="4.8" transform="translate(-333.19 -262.24) rotate(26.96)"/><path class="cls-2" d="M501.08,148.08l-18.36-9.61" transform="translate(-459.83 -60.82)"/><path class="cls-4" d="M499.35,181.94l5.76-10.84" transform="translate(-459.83 -60.82)"/><circle class="cls-2" cx="23.63" cy="102.64" r="6.24"/><circle class="cls-5" cx="67.5" cy="225.74" r="27.98"/><circle class="cls-2" cx="68.29" cy="225.74" r="19.73"/></svg>